<svg width="39" height="32" viewBox="0 0 39 32" fill="none" xmlns="http://www.w3.org/2000/svg">
<path d="M4.27062 16.926H34.7701C35.4096 16.926 35.9295 17.4745 35.8738 18.1188C35.2054 25.7905 28.1391 31.8273 19.5214 31.8273C10.9036 31.8273 3.83736 25.7905 3.1689 18.1188C3.11114 17.4745 3.63105 16.926 4.27062 16.926Z" fill="#FF6633"/>
<path d="M25.0264 5.44668C25.3669 5.44668 25.7052 5.29237 25.926 4.99627C27.0401 3.51573 29.1568 2.59404 31.449 2.59404C33.7412 2.59404 35.8579 3.51364 36.972 4.99627C37.3496 5.49882 38.0593 5.59474 38.5545 5.21313C39.0517 4.83153 39.1466 4.1142 38.769 3.61373C37.2134 1.54515 34.4777 0.310669 31.449 0.310669C28.4203 0.310669 25.6846 1.54515 24.1269 3.61373C23.7494 4.11628 23.8463 4.83153 24.3415 5.21313C24.5478 5.37161 24.7871 5.44668 25.0264 5.44668Z" fill="#414141"/>
<path d="M1.17292 5.44668C1.51334 5.44668 1.85169 5.29237 2.07245 4.99627C3.18655 3.51573 5.30333 2.59404 7.59548 2.59404C9.88763 2.59404 12.0044 3.51364 13.1185 4.99627C13.4961 5.49882 14.2058 5.59474 14.7009 5.21313C15.1982 4.83153 15.2931 4.1142 14.9155 3.61373C13.3599 1.54515 10.6242 0.310669 7.59548 0.310669C4.56679 0.310669 1.83106 1.54515 0.27339 3.61373C-0.104165 4.11628 -0.00719547 4.83153 0.487959 5.21313C0.694273 5.37161 0.933593 5.44668 1.17292 5.44668Z" fill="#414141"/>
</svg>
